<?xml version="1.0" encoding="UTF-8"?>
<svg xmlns="http://www.w3.org/2000/svg" version="1.1" width="300" height="300" viewBox="0 0 300 300"><rect x="0" y="0" width="300" height="300" fill="#ffffff"/><g transform="scale(10.345)"><g transform="translate(0,0)"><path fill-rule="evenodd" d="M8 0L8 1L9 1L9 2L8 2L8 5L9 5L9 4L11 4L11 5L10 5L10 10L8 10L8 12L6 12L6 13L5 13L5 9L4 9L4 8L0 8L0 9L3 9L3 10L0 10L0 11L1 11L1 12L0 12L0 16L1 16L1 18L0 18L0 19L1 19L1 18L3 18L3 19L2 19L2 20L1 20L1 21L2 21L2 20L3 20L3 21L4 21L4 18L5 18L5 20L6 20L6 21L8 21L8 22L9 22L9 21L10 21L10 22L11 22L11 20L12 20L12 19L11 19L11 18L10 18L10 17L11 17L11 16L12 16L12 17L13 17L13 16L12 16L12 14L13 14L13 15L14 15L14 18L13 18L13 21L15 21L15 19L16 19L16 18L17 18L17 16L16 16L16 15L19 15L19 16L18 16L18 19L17 19L17 21L19 21L19 24L17 24L17 23L15 23L15 22L14 22L14 23L10 23L10 25L8 25L8 29L12 29L12 28L14 28L14 27L15 27L15 28L16 28L16 29L19 29L19 28L16 28L16 27L15 27L15 26L14 26L14 25L13 25L13 26L12 26L12 24L15 24L15 25L16 25L16 26L17 26L17 27L19 27L19 26L17 26L17 25L19 25L19 24L20 24L20 25L24 25L24 26L25 26L25 25L26 25L26 26L27 26L27 24L26 24L26 22L27 22L27 23L28 23L28 24L29 24L29 23L28 23L28 22L29 22L29 21L27 21L27 18L28 18L28 15L29 15L29 13L27 13L27 12L26 12L26 11L28 11L28 12L29 12L29 11L28 11L28 10L29 10L29 8L28 8L28 10L26 10L26 11L25 11L25 13L27 13L27 14L24 14L24 12L23 12L23 13L22 13L22 12L20 12L20 11L19 11L19 12L17 12L17 11L18 11L18 10L17 10L17 11L16 11L16 12L14 12L14 14L13 14L13 12L12 12L12 13L11 13L11 11L14 11L14 10L15 10L15 9L14 9L14 8L13 8L13 6L14 6L14 7L15 7L15 6L14 6L14 5L16 5L16 4L17 4L17 5L19 5L19 6L18 6L18 7L17 7L17 6L16 6L16 7L17 7L17 9L18 9L18 7L19 7L19 8L20 8L20 9L19 9L19 10L20 10L20 9L22 9L22 10L21 10L21 11L22 11L22 10L23 10L23 9L22 9L22 8L21 8L21 6L20 6L20 5L21 5L21 3L20 3L20 2L21 2L21 1L20 1L20 0L19 0L19 1L20 1L20 2L19 2L19 3L17 3L17 2L18 2L18 1L16 1L16 0L15 0L15 1L16 1L16 2L15 2L15 3L14 3L14 5L13 5L13 3L12 3L12 4L11 4L11 2L14 2L14 0L12 0L12 1L11 1L11 0L10 0L10 1L9 1L9 0ZM12 5L12 6L11 6L11 8L12 8L12 6L13 6L13 5ZM8 6L8 7L9 7L9 6ZM19 6L19 7L20 7L20 6ZM6 8L6 9L7 9L7 8ZM8 8L8 9L9 9L9 8ZM24 8L24 10L25 10L25 9L27 9L27 8ZM11 9L11 10L12 10L12 9ZM6 10L6 11L7 11L7 10ZM2 11L2 12L1 12L1 13L2 13L2 12L3 12L3 13L4 13L4 14L5 14L5 15L4 15L4 17L5 17L5 16L7 16L7 17L6 17L6 18L7 18L7 19L6 19L6 20L8 20L8 21L9 21L9 20L8 20L8 19L9 19L9 18L8 18L8 15L9 15L9 17L10 17L10 14L11 14L11 13L10 13L10 14L8 14L8 13L9 13L9 12L8 12L8 13L6 13L6 14L5 14L5 13L4 13L4 11ZM16 13L16 14L14 14L14 15L16 15L16 14L19 14L19 13ZM1 14L1 16L2 16L2 17L3 17L3 15L2 15L2 14ZM6 14L6 15L8 15L8 14ZM20 14L20 15L22 15L22 16L19 16L19 20L20 20L20 18L21 18L21 20L22 20L22 18L23 18L23 19L24 19L24 20L26 20L26 19L25 19L25 18L26 18L26 17L27 17L27 15L24 15L24 14ZM23 15L23 17L25 17L25 16L24 16L24 15ZM15 16L15 17L16 17L16 16ZM10 19L10 20L11 20L11 19ZM21 21L21 24L24 24L24 21ZM22 22L22 23L23 23L23 22ZM28 25L28 27L27 27L27 29L28 29L28 27L29 27L29 25ZM9 26L9 27L10 27L10 28L12 28L12 26L11 26L11 27L10 27L10 26ZM13 26L13 27L14 27L14 26ZM20 26L20 29L21 29L21 28L23 28L23 29L26 29L26 28L25 28L25 27L22 27L22 26ZM0 0L0 7L7 7L7 0ZM1 1L1 6L6 6L6 1ZM2 2L2 5L5 5L5 2ZM22 0L22 7L29 7L29 0ZM23 1L23 6L28 6L28 1ZM24 2L24 5L27 5L27 2ZM0 22L0 29L7 29L7 22ZM1 23L1 28L6 28L6 23ZM2 24L2 27L5 27L5 24Z" fill="#000000"/></g></g></svg>
