<?xml version="1.0" encoding="UTF-8"?>
<svg xmlns="http://www.w3.org/2000/svg" version="1.1" width="300" height="300" viewBox="0 0 300 300"><rect x="0" y="0" width="300" height="300" fill="#ffffff"/><g transform="scale(10.345)"><g transform="translate(0,0)"><path fill-rule="evenodd" d="M10 0L10 2L11 2L11 0ZM12 0L12 1L13 1L13 2L12 2L12 4L13 4L13 3L14 3L14 4L19 4L19 5L18 5L18 8L15 8L15 6L16 6L16 7L17 7L17 5L15 5L15 6L14 6L14 8L15 8L15 9L12 9L12 7L13 7L13 5L11 5L11 6L10 6L10 4L11 4L11 3L8 3L8 4L9 4L9 5L8 5L8 7L9 7L9 8L6 8L6 9L5 9L5 8L0 8L0 12L1 12L1 14L0 14L0 21L1 21L1 14L3 14L3 15L4 15L4 16L5 16L5 15L4 15L4 14L6 14L6 15L7 15L7 16L6 16L6 17L7 17L7 16L9 16L9 17L10 17L10 19L8 19L8 23L9 23L9 24L8 24L8 29L9 29L9 28L11 28L11 25L12 25L12 26L13 26L13 27L12 27L12 29L13 29L13 28L14 28L14 29L17 29L17 28L16 28L16 27L18 27L18 26L19 26L19 27L20 27L20 28L21 28L21 29L22 29L22 28L25 28L25 29L27 29L27 28L28 28L28 26L29 26L29 25L27 25L27 24L28 24L28 23L27 23L27 22L29 22L29 20L28 20L28 19L27 19L27 16L28 16L28 15L27 15L27 12L28 12L28 11L27 11L27 12L25 12L25 9L26 9L26 8L25 8L25 9L24 9L24 8L23 8L23 9L22 9L22 8L20 8L20 7L21 7L21 6L20 6L20 7L19 7L19 5L20 5L20 4L21 4L21 3L19 3L19 1L20 1L20 0L19 0L19 1L18 1L18 3L17 3L17 2L16 2L16 0L15 0L15 1L14 1L14 0ZM8 1L8 2L9 2L9 1ZM14 2L14 3L15 3L15 2ZM9 6L9 7L10 7L10 6ZM11 6L11 7L12 7L12 6ZM10 8L10 9L8 9L8 10L7 10L7 9L6 9L6 10L5 10L5 11L4 11L4 10L3 10L3 12L5 12L5 11L6 11L6 12L7 12L7 13L6 13L6 14L7 14L7 15L8 15L8 14L10 14L10 15L9 15L9 16L10 16L10 17L11 17L11 22L13 22L13 23L12 23L12 25L15 25L15 24L18 24L18 23L17 23L17 22L19 22L19 21L20 21L20 20L21 20L21 19L22 19L22 18L21 18L21 17L20 17L20 16L19 16L19 15L21 15L21 14L22 14L22 13L23 13L23 15L22 15L22 17L23 17L23 20L24 20L24 19L25 19L25 21L26 21L26 20L27 20L27 19L25 19L25 18L24 18L24 17L26 17L26 16L27 16L27 15L26 15L26 13L25 13L25 12L24 12L24 11L23 11L23 10L24 10L24 9L23 9L23 10L22 10L22 9L20 9L20 10L19 10L19 9L15 9L15 10L16 10L16 12L18 12L18 10L19 10L19 12L21 12L21 11L23 11L23 12L22 12L22 13L20 13L20 14L18 14L18 15L17 15L17 13L14 13L14 12L15 12L15 11L14 11L14 12L13 12L13 13L12 13L12 11L13 11L13 10L12 10L12 9L11 9L11 8ZM27 8L27 9L28 9L28 10L29 10L29 9L28 9L28 8ZM1 9L1 10L2 10L2 9ZM10 9L10 11L11 11L11 9ZM6 10L6 11L7 11L7 12L8 12L8 11L9 11L9 10L8 10L8 11L7 11L7 10ZM20 10L20 11L21 11L21 10ZM9 12L9 13L11 13L11 12ZM23 12L23 13L24 13L24 14L25 14L25 13L24 13L24 12ZM28 13L28 14L29 14L29 13ZM11 14L11 17L12 17L12 18L13 18L13 19L12 19L12 21L13 21L13 20L14 20L14 21L18 21L18 20L16 20L16 18L15 18L15 17L18 17L18 16L16 16L16 14L15 14L15 15L14 15L14 16L15 16L15 17L12 17L12 15L13 15L13 14ZM23 15L23 16L24 16L24 15ZM2 17L2 19L3 19L3 20L2 20L2 21L7 21L7 20L6 20L6 19L7 19L7 18L5 18L5 17ZM19 17L19 18L18 18L18 19L19 19L19 18L20 18L20 19L21 19L21 18L20 18L20 17ZM28 17L28 18L29 18L29 17ZM14 19L14 20L15 20L15 19ZM9 20L9 23L10 23L10 24L11 24L11 23L10 23L10 20ZM21 21L21 24L24 24L24 21ZM15 22L15 23L14 23L14 24L15 24L15 23L16 23L16 22ZM22 22L22 23L23 23L23 22ZM19 23L19 26L20 26L20 23ZM25 23L25 24L27 24L27 23ZM9 25L9 27L10 27L10 25ZM22 25L22 26L21 26L21 27L22 27L22 26L23 26L23 27L24 27L24 26L26 26L26 27L25 27L25 28L27 28L27 25L24 25L24 26L23 26L23 25ZM14 27L14 28L15 28L15 27ZM0 0L0 7L7 7L7 0ZM1 1L1 6L6 6L6 1ZM2 2L2 5L5 5L5 2ZM22 0L22 7L29 7L29 0ZM23 1L23 6L28 6L28 1ZM24 2L24 5L27 5L27 2ZM0 22L0 29L7 29L7 22ZM1 23L1 28L6 28L6 23ZM2 24L2 27L5 27L5 24Z" fill="#000000"/></g></g></svg>
