<?xml version="1.0" encoding="UTF-8"?>
<svg xmlns="http://www.w3.org/2000/svg" version="1.1" width="300" height="300" viewBox="0 0 300 300"><rect x="0" y="0" width="300" height="300" fill="#ffffff"/><g transform="scale(10.345)"><g transform="translate(0,0)"><path fill-rule="evenodd" d="M8 0L8 4L10 4L10 3L11 3L11 4L12 4L12 2L11 2L11 0ZM12 0L12 1L13 1L13 0ZM14 0L14 1L15 1L15 0ZM20 0L20 1L18 1L18 2L15 2L15 3L14 3L14 2L13 2L13 3L14 3L14 4L13 4L13 5L11 5L11 6L10 6L10 7L9 7L9 5L8 5L8 7L9 7L9 8L10 8L10 7L11 7L11 6L12 6L12 8L11 8L11 9L9 9L9 10L8 10L8 9L7 9L7 8L4 8L4 9L3 9L3 11L2 11L2 8L0 8L0 9L1 9L1 10L0 10L0 11L1 11L1 12L0 12L0 18L2 18L2 20L0 20L0 21L2 21L2 20L3 20L3 21L4 21L4 19L7 19L7 20L5 20L5 21L8 21L8 22L9 22L9 23L8 23L8 25L10 25L10 24L11 24L11 25L12 25L12 26L11 26L11 27L10 27L10 26L9 26L9 27L8 27L8 29L9 29L9 28L12 28L12 29L14 29L14 27L15 27L15 28L16 28L16 29L17 29L17 28L19 28L19 29L21 29L21 28L22 28L22 27L21 27L21 26L20 26L20 25L23 25L23 27L24 27L24 25L25 25L25 27L26 27L26 26L27 26L27 29L28 29L28 28L29 28L29 25L28 25L28 24L29 24L29 17L28 17L28 16L29 16L29 13L28 13L28 12L29 12L29 8L25 8L25 9L24 9L24 8L23 8L23 9L20 9L20 11L21 11L21 12L22 12L22 11L23 11L23 13L20 13L20 14L21 14L21 15L19 15L19 12L18 12L18 10L16 10L16 9L19 9L19 8L20 8L20 7L21 7L21 3L19 3L19 4L20 4L20 5L18 5L18 7L17 7L17 6L16 6L16 7L15 7L15 5L16 5L16 4L15 4L15 3L18 3L18 2L21 2L21 0ZM9 2L9 3L10 3L10 2ZM13 6L13 8L12 8L12 9L11 9L11 10L9 10L9 11L8 11L8 12L7 12L7 11L6 11L6 10L7 10L7 9L6 9L6 10L5 10L5 9L4 9L4 10L5 10L5 11L3 11L3 13L2 13L2 12L1 12L1 17L2 17L2 16L3 16L3 17L4 17L4 18L3 18L3 19L4 19L4 18L7 18L7 19L9 19L9 20L10 20L10 21L9 21L9 22L11 22L11 24L12 24L12 25L13 25L13 26L16 26L16 27L18 27L18 26L16 26L16 23L15 23L15 22L13 22L13 21L12 21L12 20L13 20L13 19L12 19L12 20L11 20L11 18L12 18L12 17L13 17L13 18L15 18L15 17L16 17L16 18L18 18L18 19L19 19L19 20L18 20L18 21L16 21L16 20L15 20L15 19L14 19L14 21L16 21L16 22L17 22L17 23L18 23L18 24L20 24L20 23L19 23L19 22L20 22L20 21L19 21L19 20L21 20L21 19L22 19L22 20L23 20L23 18L24 18L24 17L25 17L25 18L27 18L27 19L24 19L24 20L26 20L26 21L25 21L25 22L27 22L27 23L25 23L25 25L27 25L27 26L28 26L28 25L27 25L27 23L28 23L28 20L27 20L27 19L28 19L28 18L27 18L27 15L28 15L28 14L27 14L27 11L28 11L28 10L24 10L24 9L23 9L23 11L24 11L24 13L23 13L23 14L22 14L22 15L23 15L23 16L20 16L20 17L19 17L19 16L18 16L18 17L16 17L16 16L15 16L15 17L13 17L13 16L14 16L14 15L15 15L15 14L13 14L13 13L12 13L12 12L13 12L13 11L12 11L12 12L11 12L11 13L10 13L10 11L11 11L11 10L12 10L12 9L13 9L13 10L15 10L15 9L16 9L16 8L17 8L17 7L16 7L16 8L15 8L15 9L13 9L13 8L14 8L14 6ZM19 6L19 7L18 7L18 8L19 8L19 7L20 7L20 6ZM21 10L21 11L22 11L22 10ZM14 11L14 13L16 13L16 14L17 14L17 15L18 15L18 14L17 14L17 13L16 13L16 12L15 12L15 11ZM4 12L4 13L3 13L3 14L2 14L2 15L3 15L3 16L4 16L4 13L5 13L5 12ZM6 12L6 13L7 13L7 14L6 14L6 15L7 15L7 16L6 16L6 17L7 17L7 18L9 18L9 19L10 19L10 18L11 18L11 17L12 17L12 16L13 16L13 15L12 15L12 16L10 16L10 18L9 18L9 17L7 17L7 16L9 16L9 14L10 14L10 13L9 13L9 14L8 14L8 13L7 13L7 12ZM24 13L24 14L23 14L23 15L24 15L24 16L25 16L25 17L26 17L26 16L25 16L25 14L26 14L26 15L27 15L27 14L26 14L26 13ZM20 17L20 19L21 19L21 17ZM22 17L22 18L23 18L23 17ZM21 21L21 24L24 24L24 21ZM22 22L22 23L23 23L23 22ZM9 23L9 24L10 24L10 23ZM12 23L12 24L13 24L13 25L15 25L15 23L14 23L14 24L13 24L13 23ZM12 27L12 28L13 28L13 27ZM19 27L19 28L20 28L20 27ZM0 0L0 7L7 7L7 0ZM1 1L1 6L6 6L6 1ZM2 2L2 5L5 5L5 2ZM22 0L22 7L29 7L29 0ZM23 1L23 6L28 6L28 1ZM24 2L24 5L27 5L27 2ZM0 22L0 29L7 29L7 22ZM1 23L1 28L6 28L6 23ZM2 24L2 27L5 27L5 24Z" fill="#000000"/></g></g></svg>
