<?xml version="1.0" encoding="UTF-8"?>
<svg xmlns="http://www.w3.org/2000/svg" version="1.1" width="300" height="300" viewBox="0 0 300 300"><rect x="0" y="0" width="300" height="300" fill="#ffffff"/><g transform="scale(10.345)"><g transform="translate(0,0)"><path fill-rule="evenodd" d="M9 0L9 1L8 1L8 3L9 3L9 4L8 4L8 8L6 8L6 9L8 9L8 10L2 10L2 8L0 8L0 10L2 10L2 12L1 12L1 11L0 11L0 12L1 12L1 13L0 13L0 16L1 16L1 17L2 17L2 19L3 19L3 17L2 17L2 16L5 16L5 17L4 17L4 20L2 20L2 21L4 21L4 20L5 20L5 21L8 21L8 23L9 23L9 22L10 22L10 25L8 25L8 26L10 26L10 27L11 27L11 28L12 28L12 29L14 29L14 28L12 28L12 24L14 24L14 25L13 25L13 27L15 27L15 28L16 28L16 29L17 29L17 28L19 28L19 29L21 29L21 28L23 28L23 27L25 27L25 28L26 28L26 26L25 26L25 25L26 25L26 24L27 24L27 26L28 26L28 27L27 27L27 29L28 29L28 27L29 27L29 26L28 26L28 25L29 25L29 24L28 24L28 22L29 22L29 21L27 21L27 20L29 20L29 17L28 17L28 15L29 15L29 14L27 14L27 13L29 13L29 12L28 12L28 10L29 10L29 9L28 9L28 8L26 8L26 9L25 9L25 8L22 8L22 10L21 10L21 11L20 11L20 10L19 10L19 9L21 9L21 8L20 8L20 7L21 7L21 3L20 3L20 5L19 5L19 6L18 6L18 7L17 7L17 6L16 6L16 4L17 4L17 3L19 3L19 2L18 2L18 1L17 1L17 0L16 0L16 1L15 1L15 0L12 0L12 1L11 1L11 2L9 2L9 1L10 1L10 0ZM19 0L19 1L21 1L21 0ZM16 1L16 2L17 2L17 1ZM14 2L14 3L15 3L15 2ZM12 3L12 4L9 4L9 5L10 5L10 6L9 6L9 7L10 7L10 8L8 8L8 9L9 9L9 10L10 10L10 8L11 8L11 9L12 9L12 10L11 10L11 11L8 11L8 12L7 12L7 11L5 11L5 12L4 12L4 11L3 11L3 12L2 12L2 15L1 15L1 16L2 16L2 15L6 15L6 16L7 16L7 17L5 17L5 20L8 20L8 21L10 21L10 22L11 22L11 21L10 21L10 20L11 20L11 19L12 19L12 20L13 20L13 21L14 21L14 22L15 22L15 23L14 23L14 24L15 24L15 25L16 25L16 26L15 26L15 27L16 27L16 28L17 28L17 27L19 27L19 26L20 26L20 24L19 24L19 23L20 23L20 20L21 20L21 18L20 18L20 17L23 17L23 18L22 18L22 20L23 20L23 19L24 19L24 20L25 20L25 23L27 23L27 22L26 22L26 20L27 20L27 18L28 18L28 17L27 17L27 15L26 15L26 13L27 13L27 12L26 12L26 13L25 13L25 11L23 11L23 10L22 10L22 11L23 11L23 12L24 12L24 15L23 15L23 13L22 13L22 12L20 12L20 14L19 14L19 13L17 13L17 12L19 12L19 11L18 11L18 10L17 10L17 9L18 9L18 8L19 8L19 7L20 7L20 6L19 6L19 7L18 7L18 8L16 8L16 6L15 6L15 8L14 8L14 6L13 6L13 3ZM11 5L11 6L10 6L10 7L11 7L11 6L12 6L12 8L13 8L13 6L12 6L12 5ZM3 8L3 9L4 9L4 8ZM14 9L14 10L15 10L15 9ZM24 9L24 10L25 10L25 9ZM26 9L26 10L28 10L28 9ZM14 11L14 12L16 12L16 11ZM6 12L6 13L5 13L5 14L6 14L6 15L7 15L7 16L8 16L8 18L6 18L6 19L8 19L8 20L10 20L10 19L11 19L11 17L12 17L12 16L13 16L13 17L15 17L15 16L16 16L16 17L18 17L18 19L17 19L17 18L16 18L16 19L15 19L15 20L14 20L14 18L13 18L13 20L14 20L14 21L15 21L15 20L19 20L19 17L20 17L20 16L22 16L22 15L20 15L20 16L19 16L19 15L17 15L17 13L16 13L16 15L13 15L13 12L12 12L12 13L10 13L10 15L11 15L11 14L12 14L12 16L11 16L11 17L10 17L10 16L9 16L9 14L6 14L6 13L7 13L7 12ZM8 12L8 13L9 13L9 12ZM3 13L3 14L4 14L4 13ZM16 15L16 16L17 16L17 15ZM24 15L24 16L25 16L25 17L26 17L26 15ZM18 16L18 17L19 17L19 16ZM0 18L0 19L1 19L1 18ZM8 18L8 19L9 19L9 18ZM25 18L25 19L26 19L26 18ZM0 20L0 21L1 21L1 20ZM17 21L17 23L19 23L19 21ZM21 21L21 24L24 24L24 21ZM22 22L22 23L23 23L23 22ZM17 24L17 25L19 25L19 24ZM10 25L10 26L11 26L11 25ZM23 25L23 26L22 26L22 27L23 27L23 26L24 26L24 25ZM8 27L8 29L9 29L9 27ZM0 0L0 7L7 7L7 0ZM1 1L1 6L6 6L6 1ZM2 2L2 5L5 5L5 2ZM22 0L22 7L29 7L29 0ZM23 1L23 6L28 6L28 1ZM24 2L24 5L27 5L27 2ZM0 22L0 29L7 29L7 22ZM1 23L1 28L6 28L6 23ZM2 24L2 27L5 27L5 24Z" fill="#000000"/></g></g></svg>
