<?xml version="1.0" encoding="UTF-8"?>
<svg xmlns="http://www.w3.org/2000/svg" version="1.1" width="300" height="300" viewBox="0 0 300 300"><rect x="0" y="0" width="300" height="300" fill="#ffffff"/><g transform="scale(10.345)"><g transform="translate(0,0)"><path fill-rule="evenodd" d="M9 0L9 1L10 1L10 2L8 2L8 3L9 3L9 4L10 4L10 5L9 5L9 6L8 6L8 8L4 8L4 9L3 9L3 8L0 8L0 9L1 9L1 10L0 10L0 11L1 11L1 12L2 12L2 11L3 11L3 13L2 13L2 14L3 14L3 16L5 16L5 17L1 17L1 18L0 18L0 19L1 19L1 20L0 20L0 21L1 21L1 20L2 20L2 19L3 19L3 21L7 21L7 20L4 20L4 19L5 19L5 18L6 18L6 19L7 19L7 18L6 18L6 17L7 17L7 16L5 16L5 15L4 15L4 14L3 14L3 13L4 13L4 11L5 11L5 13L7 13L7 12L8 12L8 11L10 11L10 10L12 10L12 8L14 8L14 10L13 10L13 11L14 11L14 10L15 10L15 8L16 8L16 7L17 7L17 10L16 10L16 11L15 11L15 12L16 12L16 11L17 11L17 13L20 13L20 11L19 11L19 9L20 9L20 8L18 8L18 7L19 7L19 6L20 6L20 7L21 7L21 6L20 6L20 5L21 5L21 2L20 2L20 1L21 1L21 0L19 0L19 2L18 2L18 1L17 1L17 0L16 0L16 1L15 1L15 0L12 0L12 1L10 1L10 0ZM13 1L13 2L14 2L14 1ZM16 1L16 2L15 2L15 3L17 3L17 5L18 5L18 6L17 6L17 7L18 7L18 6L19 6L19 4L20 4L20 2L19 2L19 3L18 3L18 2L17 2L17 1ZM11 2L11 3L12 3L12 4L11 4L11 5L10 5L10 6L9 6L9 7L10 7L10 6L11 6L11 8L12 8L12 6L13 6L13 7L14 7L14 6L15 6L15 7L16 7L16 6L15 6L15 5L14 5L14 4L13 4L13 3L12 3L12 2ZM13 5L13 6L14 6L14 5ZM9 8L9 9L6 9L6 10L7 10L7 11L6 11L6 12L7 12L7 11L8 11L8 10L10 10L10 8ZM21 8L21 9L22 9L22 10L21 10L21 12L22 12L22 14L24 14L24 11L25 11L25 14L27 14L27 17L26 17L26 18L25 18L25 20L24 20L24 19L22 19L22 18L24 18L24 17L23 17L23 16L22 16L22 15L21 15L21 14L20 14L20 16L22 16L22 17L21 17L21 20L20 20L20 19L19 19L19 17L18 17L18 16L19 16L19 15L18 15L18 14L16 14L16 15L15 15L15 14L14 14L14 13L13 13L13 12L12 12L12 11L11 11L11 12L12 12L12 13L11 13L11 15L12 15L12 16L11 16L11 18L8 18L8 19L11 19L11 20L12 20L12 21L11 21L11 23L10 23L10 20L9 20L9 21L8 21L8 25L9 25L9 26L8 26L8 29L10 29L10 27L11 27L11 28L12 28L12 29L13 29L13 28L12 28L12 27L11 27L11 26L12 26L12 24L14 24L14 26L13 26L13 27L14 27L14 26L17 26L17 28L20 28L20 29L21 29L21 28L22 28L22 29L23 29L23 27L22 27L22 25L24 25L24 27L25 27L25 29L26 29L26 27L27 27L27 29L29 29L29 28L28 28L28 27L29 27L29 24L28 24L28 23L29 23L29 21L26 21L26 22L25 22L25 20L26 20L26 18L27 18L27 20L28 20L28 19L29 19L29 16L28 16L28 15L29 15L29 12L28 12L28 11L29 11L29 9L28 9L28 10L26 10L26 9L27 9L27 8L26 8L26 9L25 9L25 10L24 10L24 9L23 9L23 8ZM4 9L4 10L3 10L3 11L4 11L4 10L5 10L5 9ZM17 10L17 11L18 11L18 12L19 12L19 11L18 11L18 10ZM25 10L25 11L26 11L26 13L27 13L27 14L28 14L28 13L27 13L27 11L26 11L26 10ZM0 13L0 14L1 14L1 13ZM9 13L9 14L6 14L6 15L8 15L8 16L9 16L9 17L10 17L10 13ZM13 14L13 15L14 15L14 14ZM0 15L0 16L2 16L2 15ZM16 15L16 16L15 16L15 18L14 18L14 16L12 16L12 18L11 18L11 19L12 19L12 20L13 20L13 21L14 21L14 22L13 22L13 23L14 23L14 22L15 22L15 25L17 25L17 26L18 26L18 27L19 27L19 25L20 25L20 24L19 24L19 23L18 23L18 24L19 24L19 25L17 25L17 23L16 23L16 22L17 22L17 19L18 19L18 18L17 18L17 15ZM24 15L24 16L26 16L26 15ZM27 17L27 18L28 18L28 17ZM1 18L1 19L2 19L2 18ZM3 18L3 19L4 19L4 18ZM13 18L13 19L14 19L14 18ZM16 18L16 19L15 19L15 20L16 20L16 19L17 19L17 18ZM18 20L18 21L19 21L19 22L20 22L20 20ZM21 21L21 24L24 24L24 21ZM22 22L22 23L23 23L23 22ZM26 22L26 26L27 26L27 27L28 27L28 26L27 26L27 22ZM11 23L11 24L12 24L12 23ZM9 24L9 25L10 25L10 24ZM9 26L9 27L10 27L10 26ZM20 26L20 27L21 27L21 26ZM15 27L15 28L16 28L16 27ZM0 0L0 7L7 7L7 0ZM1 1L1 6L6 6L6 1ZM2 2L2 5L5 5L5 2ZM22 0L22 7L29 7L29 0ZM23 1L23 6L28 6L28 1ZM24 2L24 5L27 5L27 2ZM0 22L0 29L7 29L7 22ZM1 23L1 28L6 28L6 23ZM2 24L2 27L5 27L5 24Z" fill="#000000"/></g></g></svg>
