<?xml version="1.0" encoding="UTF-8"?>
<svg xmlns="http://www.w3.org/2000/svg" version="1.1" width="200" height="200" viewBox="0 0 200 200"><rect x="0" y="0" width="200" height="200" fill="#ffffff"/><g transform="scale(6.897)"><g transform="translate(0,0)"><path fill-rule="evenodd" d="M10 0L10 1L9 1L9 2L8 2L8 3L9 3L9 5L10 5L10 7L11 7L11 8L12 8L12 9L11 9L11 10L10 10L10 9L9 9L9 6L8 6L8 8L4 8L4 9L3 9L3 8L0 8L0 10L1 10L1 11L0 11L0 12L1 12L1 13L2 13L2 14L0 14L0 16L2 16L2 14L3 14L3 15L4 15L4 14L5 14L5 15L8 15L8 16L9 16L9 18L11 18L11 19L12 19L12 20L11 20L11 22L12 22L12 20L14 20L14 22L13 22L13 23L14 23L14 22L15 22L15 20L16 20L16 19L15 19L15 18L17 18L17 20L18 20L18 19L19 19L19 21L20 21L20 22L18 22L18 21L17 21L17 22L18 22L18 23L17 23L17 24L20 24L20 25L19 25L19 26L21 26L21 27L20 27L20 29L23 29L23 28L24 28L24 29L26 29L26 27L27 27L27 29L29 29L29 28L28 28L28 27L29 27L29 21L26 21L26 22L25 22L25 20L26 20L26 18L27 18L27 20L28 20L28 19L29 19L29 16L28 16L28 15L29 15L29 12L28 12L28 11L29 11L29 9L28 9L28 10L26 10L26 9L27 9L27 8L26 8L26 9L25 9L25 10L24 10L24 9L23 9L23 8L21 8L21 10L20 10L20 11L18 11L18 10L17 10L17 12L20 12L20 11L21 11L21 12L22 12L22 15L21 15L21 14L20 14L20 15L19 15L19 13L17 13L17 14L16 14L16 17L15 17L15 18L14 18L14 17L13 17L13 16L12 16L12 15L11 15L11 16L12 16L12 17L10 17L10 14L12 14L12 12L14 12L14 14L13 14L13 15L14 15L14 14L15 14L15 13L16 13L16 11L15 11L15 10L14 10L14 9L13 9L13 8L12 8L12 7L13 7L13 5L14 5L14 7L15 7L15 8L17 8L17 9L19 9L19 8L20 8L20 7L21 7L21 6L20 6L20 5L21 5L21 4L19 4L19 3L20 3L20 2L21 2L21 1L20 1L20 0L19 0L19 3L18 3L18 4L19 4L19 6L18 6L18 7L17 7L17 4L16 4L16 5L14 5L14 3L12 3L12 2L11 2L11 3L12 3L12 5L10 5L10 3L9 3L9 2L10 2L10 1L11 1L11 0ZM14 0L14 1L13 1L13 2L14 2L14 1L15 1L15 0ZM17 1L17 2L18 2L18 1ZM15 2L15 3L16 3L16 2ZM11 6L11 7L12 7L12 6ZM15 6L15 7L16 7L16 6ZM19 6L19 7L18 7L18 8L19 8L19 7L20 7L20 6ZM4 9L4 11L5 11L5 12L2 12L2 11L3 11L3 10L2 10L2 11L1 11L1 12L2 12L2 13L3 13L3 14L4 14L4 13L5 13L5 14L7 14L7 13L8 13L8 14L9 14L9 13L10 13L10 12L7 12L7 11L8 11L8 10L9 10L9 11L10 11L10 10L9 10L9 9L6 9L6 10L7 10L7 11L5 11L5 9ZM13 10L13 11L14 11L14 10ZM22 10L22 11L24 11L24 14L23 14L23 15L22 15L22 16L21 16L21 15L20 15L20 16L17 16L17 17L19 17L19 19L20 19L20 20L21 20L21 19L20 19L20 18L21 18L21 17L22 17L22 16L23 16L23 17L24 17L24 19L23 19L23 18L22 18L22 19L23 19L23 20L25 20L25 18L26 18L26 17L27 17L27 18L28 18L28 17L27 17L27 14L28 14L28 13L27 13L27 11L26 11L26 10L25 10L25 11L24 11L24 10ZM11 11L11 12L12 12L12 11ZM25 11L25 14L27 14L27 13L26 13L26 11ZM6 12L6 13L7 13L7 12ZM17 14L17 15L18 15L18 14ZM24 15L24 16L26 16L26 15ZM3 16L3 17L1 17L1 18L0 18L0 19L1 19L1 20L0 20L0 21L1 21L1 20L2 20L2 21L3 21L3 20L2 20L2 19L1 19L1 18L3 18L3 19L5 19L5 21L7 21L7 20L8 20L8 25L9 25L9 26L8 26L8 29L12 29L12 28L14 28L14 29L15 29L15 26L14 26L14 25L13 25L13 24L12 24L12 23L11 23L11 24L12 24L12 25L10 25L10 21L9 21L9 20L10 20L10 19L7 19L7 18L8 18L8 17L7 17L7 16ZM3 17L3 18L5 18L5 17ZM6 17L6 18L7 18L7 17ZM13 18L13 19L14 19L14 18ZM6 19L6 20L7 20L7 19ZM21 21L21 24L24 24L24 21ZM22 22L22 23L23 23L23 22ZM26 22L26 26L27 26L27 27L28 27L28 26L27 26L27 25L28 25L28 23L27 23L27 22ZM15 23L15 25L16 25L16 23ZM17 25L17 26L16 26L16 27L17 27L17 29L19 29L19 27L17 27L17 26L18 26L18 25ZM22 25L22 28L23 28L23 27L24 27L24 25ZM9 26L9 27L10 27L10 28L12 28L12 27L10 27L10 26ZM13 26L13 27L14 27L14 26ZM0 0L0 7L7 7L7 0ZM1 1L1 6L6 6L6 1ZM2 2L2 5L5 5L5 2ZM22 0L22 7L29 7L29 0ZM23 1L23 6L28 6L28 1ZM24 2L24 5L27 5L27 2ZM0 22L0 29L7 29L7 22ZM1 23L1 28L6 28L6 23ZM2 24L2 27L5 27L5 24Z" fill="#000000"/></g></g></svg>
