<?xml version="1.0" encoding="UTF-8"?>
<svg xmlns="http://www.w3.org/2000/svg" version="1.1" width="200" height="200" viewBox="0 0 200 200"><rect x="0" y="0" width="200" height="200" fill="#ffffff"/><g transform="scale(8)"><g transform="translate(0,0)"><path fill-rule="evenodd" d="M8 0L8 1L10 1L10 0ZM12 0L12 3L13 3L13 4L12 4L12 5L11 5L11 2L9 2L9 6L8 6L8 8L9 8L9 6L10 6L10 9L11 9L11 11L12 11L12 12L9 12L9 11L10 11L10 10L8 10L8 9L7 9L7 8L6 8L6 9L7 9L7 10L6 10L6 11L7 11L7 10L8 10L8 12L5 12L5 11L4 11L4 12L2 12L2 13L4 13L4 12L5 12L5 15L3 15L3 14L1 14L1 13L0 13L0 17L1 17L1 15L2 15L2 16L3 16L3 17L4 17L4 16L5 16L5 17L8 17L8 18L11 18L11 21L10 21L10 22L9 22L9 20L8 20L8 22L9 22L9 23L8 23L8 25L12 25L12 24L13 24L13 20L14 20L14 21L18 21L18 22L20 22L20 23L17 23L17 22L16 22L16 23L17 23L17 24L15 24L15 22L14 22L14 24L15 24L15 25L19 25L19 24L21 24L21 25L22 25L22 24L24 24L24 25L25 25L25 22L22 22L22 20L21 20L21 19L22 19L22 18L21 18L21 15L22 15L22 17L23 17L23 18L24 18L24 21L25 21L25 18L24 18L24 16L25 16L25 14L24 14L24 13L25 13L25 10L24 10L24 9L25 9L25 8L24 8L24 9L20 9L20 10L21 10L21 12L24 12L24 13L23 13L23 14L21 14L21 13L19 13L19 12L16 12L16 10L18 10L18 11L19 11L19 10L18 10L18 9L19 9L19 8L18 8L18 9L16 9L16 8L15 8L15 6L14 6L14 7L13 7L13 4L16 4L16 3L17 3L17 2L16 2L16 3L14 3L14 2L15 2L15 1L13 1L13 0ZM16 0L16 1L17 1L17 0ZM10 5L10 6L11 6L11 9L13 9L13 12L12 12L12 13L10 13L10 15L9 15L9 14L8 14L8 13L9 13L9 12L8 12L8 13L6 13L6 14L7 14L7 15L5 15L5 16L8 16L8 17L11 17L11 16L12 16L12 20L13 20L13 19L14 19L14 20L16 20L16 18L15 18L15 17L14 17L14 18L13 18L13 16L14 16L14 15L15 15L15 16L16 16L16 15L15 15L15 13L16 13L16 14L18 14L18 15L17 15L17 16L20 16L20 15L21 15L21 14L19 14L19 13L16 13L16 12L15 12L15 11L14 11L14 10L15 10L15 8L12 8L12 6L11 6L11 5ZM16 6L16 7L17 7L17 6ZM0 8L0 9L2 9L2 10L5 10L5 8L3 8L3 9L2 9L2 8ZM0 10L0 11L1 11L1 10ZM22 10L22 11L24 11L24 10ZM14 12L14 13L13 13L13 15L12 15L12 16L13 16L13 15L14 15L14 13L15 13L15 12ZM8 15L8 16L9 16L9 15ZM23 15L23 16L24 16L24 15ZM17 17L17 20L20 20L20 17ZM18 18L18 19L19 19L19 18ZM20 21L20 22L21 22L21 24L22 24L22 22L21 22L21 21ZM10 22L10 23L9 23L9 24L12 24L12 23L11 23L11 22ZM0 0L0 7L7 7L7 0ZM1 1L1 6L6 6L6 1ZM2 2L2 5L5 5L5 2ZM18 0L18 7L25 7L25 0ZM19 1L19 6L24 6L24 1ZM20 2L20 5L23 5L23 2ZM0 18L0 25L7 25L7 18ZM1 19L1 24L6 24L6 19ZM2 20L2 23L5 23L5 20Z" fill="#000000"/></g></g></svg>
