<?xml version="1.0" encoding="UTF-8"?>
<svg xmlns="http://www.w3.org/2000/svg" version="1.1" width="200" height="200" viewBox="0 0 200 200"><rect x="0" y="0" width="200" height="200" fill="#ffffff"/><g transform="scale(6.897)"><g transform="translate(0,0)"><path fill-rule="evenodd" d="M9 0L9 1L8 1L8 2L9 2L9 3L8 3L8 4L10 4L10 7L11 7L11 4L12 4L12 5L13 5L13 6L12 6L12 9L13 9L13 8L14 8L14 9L15 9L15 11L14 11L14 12L15 12L15 13L12 13L12 11L13 11L13 10L11 10L11 11L10 11L10 9L11 9L11 8L6 8L6 9L5 9L5 8L0 8L0 9L1 9L1 13L2 13L2 10L4 10L4 11L5 11L5 12L4 12L4 14L5 14L5 12L6 12L6 13L7 13L7 14L6 14L6 15L2 15L2 14L0 14L0 15L2 15L2 16L1 16L1 17L0 17L0 21L1 21L1 17L2 17L2 19L3 19L3 21L5 21L5 20L4 20L4 19L5 19L5 16L6 16L6 17L7 17L7 16L9 16L9 17L8 17L8 19L9 19L9 20L8 20L8 23L10 23L10 24L11 24L11 23L10 23L10 22L9 22L9 20L10 20L10 21L12 21L12 22L13 22L13 23L12 23L12 25L13 25L13 24L14 24L14 25L17 25L17 22L15 22L15 21L12 21L12 19L13 19L13 18L10 18L10 19L9 19L9 17L11 17L11 15L10 15L10 16L9 16L9 14L8 14L8 13L10 13L10 14L11 14L11 13L12 13L12 14L13 14L13 15L12 15L12 17L13 17L13 16L14 16L14 17L15 17L15 19L14 19L14 20L16 20L16 21L17 21L17 20L16 20L16 19L18 19L18 20L19 20L19 21L18 21L18 23L20 23L20 27L19 27L19 28L15 28L15 27L16 27L16 26L15 26L15 27L14 27L14 28L15 28L15 29L19 29L19 28L22 28L22 27L23 27L23 26L24 26L24 27L26 27L26 26L24 26L24 25L27 25L27 28L24 28L24 29L27 29L27 28L28 28L28 26L29 26L29 25L28 25L28 24L29 24L29 23L28 23L28 24L25 24L25 23L27 23L27 22L29 22L29 20L28 20L28 19L27 19L27 16L28 16L28 15L27 15L27 12L28 12L28 11L27 11L27 12L25 12L25 9L26 9L26 8L25 8L25 9L24 9L24 8L23 8L23 9L22 9L22 8L20 8L20 9L19 9L19 5L20 5L20 3L21 3L21 0L19 0L19 1L18 1L18 2L19 2L19 5L17 5L17 6L16 6L16 4L12 4L12 2L13 2L13 1L11 1L11 2L10 2L10 0ZM15 0L15 1L17 1L17 0ZM19 1L19 2L20 2L20 1ZM14 2L14 3L15 3L15 2ZM16 2L16 3L17 3L17 4L18 4L18 3L17 3L17 2ZM10 3L10 4L11 4L11 3ZM8 5L8 7L9 7L9 5ZM13 6L13 7L14 7L14 8L16 8L16 9L17 9L17 8L18 8L18 6L17 6L17 7L16 7L16 6L15 6L15 7L14 7L14 6ZM20 6L20 7L21 7L21 6ZM27 8L27 9L28 9L28 10L29 10L29 9L28 9L28 8ZM4 9L4 10L5 10L5 11L6 11L6 12L7 12L7 13L8 13L8 12L7 12L7 11L9 11L9 9L8 9L8 10L7 10L7 9L6 9L6 10L5 10L5 9ZM20 9L20 10L18 10L18 11L17 11L17 10L16 10L16 11L15 11L15 12L16 12L16 13L17 13L17 15L16 15L16 17L17 17L17 18L19 18L19 20L21 20L21 19L22 19L22 18L21 18L21 17L20 17L20 16L21 16L21 14L22 14L22 17L23 17L23 18L24 18L24 19L25 19L25 21L26 21L26 20L27 20L27 19L25 19L25 18L24 18L24 17L26 17L26 16L27 16L27 15L26 15L26 13L25 13L25 12L24 12L24 9L23 9L23 12L22 12L22 13L20 13L20 12L21 12L21 11L22 11L22 10L21 10L21 9ZM6 10L6 11L7 11L7 10ZM10 12L10 13L11 13L11 12ZM23 12L23 13L22 13L22 14L23 14L23 13L24 13L24 14L25 14L25 13L24 13L24 12ZM19 13L19 14L18 14L18 15L19 15L19 14L20 14L20 13ZM28 13L28 14L29 14L29 13ZM6 15L6 16L7 16L7 15ZM14 15L14 16L15 16L15 15ZM23 15L23 16L24 16L24 15ZM19 17L19 18L20 18L20 17ZM28 17L28 18L29 18L29 17ZM6 18L6 19L7 19L7 18ZM6 20L6 21L7 21L7 20ZM21 21L21 24L24 24L24 21ZM22 22L22 23L23 23L23 22ZM14 23L14 24L15 24L15 23ZM8 24L8 29L10 29L10 26L9 26L9 24ZM18 25L18 26L19 26L19 25ZM22 25L22 26L21 26L21 27L22 27L22 26L23 26L23 25ZM11 26L11 29L12 29L12 27L13 27L13 26ZM0 0L0 7L7 7L7 0ZM1 1L1 6L6 6L6 1ZM2 2L2 5L5 5L5 2ZM22 0L22 7L29 7L29 0ZM23 1L23 6L28 6L28 1ZM24 2L24 5L27 5L27 2ZM0 22L0 29L7 29L7 22ZM1 23L1 28L6 28L6 23ZM2 24L2 27L5 27L5 24Z" fill="#000000"/></g></g></svg>
