<?xml version="1.0" encoding="UTF-8"?>
<svg xmlns="http://www.w3.org/2000/svg" version="1.1" width="200" height="200" viewBox="0 0 200 200"><rect x="0" y="0" width="200" height="200" fill="#ffffff"/><g transform="scale(8)"><g transform="translate(0,0)"><path fill-rule="evenodd" d="M8 0L8 2L9 2L9 4L8 4L8 10L6 10L6 11L3 11L3 8L0 8L0 9L1 9L1 11L0 11L0 13L1 13L1 11L2 11L2 12L3 12L3 13L4 13L4 14L6 14L6 15L5 15L5 16L4 16L4 17L8 17L8 18L9 18L9 19L8 19L8 20L10 20L10 21L9 21L9 22L8 22L8 25L9 25L9 24L10 24L10 21L11 21L11 25L12 25L12 23L14 23L14 24L15 24L15 25L19 25L19 24L21 24L21 25L22 25L22 24L21 24L21 22L23 22L23 23L25 23L25 20L23 20L23 21L22 21L22 20L21 20L21 19L22 19L22 18L23 18L23 17L24 17L24 19L25 19L25 17L24 17L24 16L23 16L23 17L22 17L22 18L21 18L21 16L19 16L19 15L18 15L18 16L14 16L14 17L12 17L12 16L11 16L11 15L12 15L12 14L13 14L13 15L17 15L17 14L16 14L16 13L18 13L18 14L19 14L19 11L20 11L20 10L19 10L19 9L21 9L21 12L22 12L22 11L23 11L23 10L24 10L24 11L25 11L25 8L23 8L23 10L22 10L22 9L21 9L21 8L17 8L17 10L16 10L16 8L14 8L14 10L12 10L12 8L10 8L10 9L9 9L9 4L10 4L10 3L12 3L12 5L14 5L14 3L15 3L15 4L16 4L16 7L17 7L17 2L16 2L16 3L15 3L15 2L9 2L9 1L10 1L10 0ZM12 0L12 1L13 1L13 0ZM16 0L16 1L17 1L17 0ZM10 6L10 7L11 7L11 6ZM12 6L12 7L13 7L13 6ZM14 6L14 7L15 7L15 6ZM5 8L5 9L4 9L4 10L5 10L5 9L7 9L7 8ZM17 10L17 11L18 11L18 10ZM6 11L6 12L4 12L4 13L6 13L6 14L7 14L7 15L6 15L6 16L7 16L7 15L8 15L8 14L7 14L7 13L6 13L6 12L7 12L7 11ZM8 11L8 12L11 12L11 11ZM12 11L12 13L10 13L10 14L9 14L9 15L11 15L11 14L12 14L12 13L13 13L13 14L14 14L14 12L15 12L15 13L16 13L16 12L15 12L15 11ZM24 12L24 13L23 13L23 14L20 14L20 15L23 15L23 14L24 14L24 15L25 15L25 12ZM0 14L0 15L3 15L3 14ZM0 16L0 17L2 17L2 16ZM10 16L10 17L11 17L11 18L10 18L10 20L11 20L11 21L12 21L12 22L14 22L14 21L15 21L15 24L16 24L16 23L17 23L17 24L19 24L19 21L17 21L17 22L16 22L16 21L15 21L15 20L16 20L16 18L15 18L15 17L14 17L14 18L12 18L12 17L11 17L11 16ZM17 17L17 20L20 20L20 17ZM11 18L11 20L12 20L12 21L13 21L13 19L12 19L12 18ZM18 18L18 19L19 19L19 18ZM14 19L14 20L15 20L15 19ZM23 21L23 22L24 22L24 21ZM24 24L24 25L25 25L25 24ZM0 0L0 7L7 7L7 0ZM1 1L1 6L6 6L6 1ZM2 2L2 5L5 5L5 2ZM18 0L18 7L25 7L25 0ZM19 1L19 6L24 6L24 1ZM20 2L20 5L23 5L23 2ZM0 18L0 25L7 25L7 18ZM1 19L1 24L6 24L6 19ZM2 20L2 23L5 23L5 20Z" fill="#000000"/></g></g></svg>
