<?xml version="1.0" encoding="UTF-8"?>
<svg xmlns="http://www.w3.org/2000/svg" version="1.1" width="200" height="200" viewBox="0 0 200 200"><rect x="0" y="0" width="200" height="200" fill="#ffffff"/><g transform="scale(8)"><g transform="translate(0,0)"><path fill-rule="evenodd" d="M8 0L8 1L10 1L10 0ZM12 0L12 3L13 3L13 4L12 4L12 5L11 5L11 2L9 2L9 4L10 4L10 7L11 7L11 6L12 6L12 8L15 8L15 10L14 10L14 11L15 11L15 12L14 12L14 13L13 13L13 15L12 15L12 16L10 16L10 17L11 17L11 18L10 18L10 19L11 19L11 21L9 21L9 20L8 20L8 22L10 22L10 23L8 23L8 25L10 25L10 24L11 24L11 25L12 25L12 24L13 24L13 20L14 20L14 21L18 21L18 22L20 22L20 23L17 23L17 22L16 22L16 23L17 23L17 24L15 24L15 22L14 22L14 24L15 24L15 25L19 25L19 24L21 24L21 25L22 25L22 24L24 24L24 25L25 25L25 22L22 22L22 20L21 20L21 19L22 19L22 18L21 18L21 15L22 15L22 17L23 17L23 18L24 18L24 21L25 21L25 18L24 18L24 16L25 16L25 14L24 14L24 13L25 13L25 10L24 10L24 9L25 9L25 8L24 8L24 9L20 9L20 10L21 10L21 12L24 12L24 13L23 13L23 14L21 14L21 13L19 13L19 12L16 12L16 10L18 10L18 11L19 11L19 10L18 10L18 9L19 9L19 8L18 8L18 9L16 9L16 8L15 8L15 6L14 6L14 7L13 7L13 4L16 4L16 3L17 3L17 2L16 2L16 3L14 3L14 2L15 2L15 1L13 1L13 0ZM16 0L16 1L17 1L17 0ZM8 6L8 8L9 8L9 6ZM16 6L16 7L17 7L17 6ZM0 8L0 10L1 10L1 9L2 9L2 10L3 10L3 11L4 11L4 9L5 9L5 8L3 8L3 9L2 9L2 8ZM6 8L6 9L7 9L7 10L6 10L6 11L5 11L5 12L3 12L3 13L2 13L2 14L1 14L1 12L2 12L2 11L1 11L1 12L0 12L0 17L1 17L1 15L2 15L2 14L4 14L4 13L5 13L5 12L6 12L6 13L7 13L7 12L6 12L6 11L7 11L7 10L9 10L9 9L7 9L7 8ZM10 8L10 9L11 9L11 11L10 11L10 12L9 12L9 11L8 11L8 13L9 13L9 14L5 14L5 15L4 15L4 16L2 16L2 17L8 17L8 18L9 18L9 14L10 14L10 13L12 13L12 12L13 12L13 9L11 9L11 8ZM22 10L22 11L24 11L24 10ZM11 11L11 12L12 12L12 11ZM15 12L15 13L14 13L14 15L13 15L13 16L12 16L12 20L13 20L13 19L14 19L14 20L16 20L16 18L15 18L15 17L14 17L14 18L13 18L13 16L14 16L14 15L15 15L15 16L16 16L16 15L15 15L15 13L16 13L16 14L18 14L18 15L17 15L17 16L20 16L20 15L21 15L21 14L19 14L19 13L16 13L16 12ZM5 15L5 16L8 16L8 15ZM23 15L23 16L24 16L24 15ZM17 17L17 20L20 20L20 17ZM18 18L18 19L19 19L19 18ZM20 21L20 22L21 22L21 24L22 24L22 22L21 22L21 21ZM11 23L11 24L12 24L12 23ZM0 0L0 7L7 7L7 0ZM1 1L1 6L6 6L6 1ZM2 2L2 5L5 5L5 2ZM18 0L18 7L25 7L25 0ZM19 1L19 6L24 6L24 1ZM20 2L20 5L23 5L23 2ZM0 18L0 25L7 25L7 18ZM1 19L1 24L6 24L6 19ZM2 20L2 23L5 23L5 20Z" fill="#000000"/></g></g></svg>
