<?xml version="1.0" encoding="UTF-8"?>
<svg xmlns="http://www.w3.org/2000/svg" version="1.1" width="200" height="200" viewBox="0 0 200 200"><rect x="0" y="0" width="200" height="200" fill="#ffffff"/><g transform="scale(6.897)"><g transform="translate(0,0)"><path fill-rule="evenodd" d="M8 0L8 1L10 1L10 0ZM15 0L15 1L14 1L14 2L11 2L11 4L10 4L10 3L9 3L9 2L8 2L8 5L9 5L9 6L8 6L8 7L9 7L9 8L8 8L8 9L7 9L7 8L6 8L6 9L5 9L5 10L4 10L4 13L2 13L2 12L3 12L3 11L1 11L1 10L0 10L0 11L1 11L1 12L0 12L0 13L1 13L1 15L0 15L0 16L1 16L1 18L0 18L0 19L1 19L1 18L3 18L3 17L4 17L4 19L3 19L3 21L4 21L4 19L5 19L5 20L6 20L6 21L7 21L7 20L6 20L6 19L7 19L7 18L8 18L8 19L9 19L9 20L8 20L8 22L9 22L9 20L10 20L10 18L11 18L11 19L12 19L12 20L11 20L11 21L12 21L12 22L10 22L10 24L9 24L9 25L8 25L8 29L11 29L11 28L12 28L12 29L13 29L13 28L12 28L12 26L13 26L13 27L14 27L14 29L15 29L15 28L17 28L17 29L19 29L19 28L20 28L20 29L22 29L22 26L19 26L19 28L17 28L17 26L18 26L18 25L16 25L16 24L17 24L17 23L18 23L18 24L20 24L20 25L24 25L24 26L25 26L25 25L26 25L26 26L27 26L27 25L28 25L28 27L27 27L27 29L28 29L28 27L29 27L29 25L28 25L28 22L29 22L29 21L27 21L27 18L28 18L28 15L29 15L29 13L27 13L27 12L26 12L26 11L28 11L28 12L29 12L29 11L28 11L28 10L29 10L29 8L28 8L28 10L26 10L26 11L25 11L25 13L27 13L27 14L24 14L24 12L23 12L23 13L22 13L22 12L20 12L20 11L24 11L24 10L25 10L25 9L27 9L27 8L24 8L24 10L23 10L23 9L22 9L22 8L21 8L21 6L20 6L20 5L21 5L21 4L20 4L20 3L21 3L21 2L20 2L20 3L19 3L19 2L18 2L18 1L17 1L17 0ZM19 0L19 1L21 1L21 0ZM16 1L16 3L12 3L12 5L10 5L10 6L9 6L9 7L10 7L10 8L9 8L9 9L8 9L8 10L9 10L9 11L5 11L5 12L8 12L8 13L9 13L9 12L10 12L10 13L11 13L11 11L14 11L14 10L15 10L15 11L16 11L16 10L17 10L17 13L16 13L16 14L15 14L15 12L12 12L12 14L8 14L8 16L9 16L9 15L10 15L10 16L12 16L12 17L11 17L11 18L12 18L12 17L14 17L14 18L13 18L13 20L14 20L14 21L15 21L15 22L14 22L14 23L11 23L11 24L10 24L10 25L12 25L12 24L13 24L13 26L14 26L14 27L16 27L16 25L15 25L15 26L14 26L14 24L15 24L15 23L16 23L16 22L17 22L17 18L18 18L18 17L17 17L17 18L16 18L16 19L15 19L15 15L16 15L16 16L19 16L19 19L18 19L18 23L19 23L19 21L20 21L20 19L21 19L21 20L22 20L22 18L24 18L24 19L23 19L23 20L26 20L26 19L25 19L25 18L26 18L26 17L27 17L27 15L24 15L24 14L23 14L23 15L22 15L22 14L20 14L20 15L19 15L19 14L17 14L17 13L20 13L20 12L18 12L18 10L17 10L17 7L18 7L18 9L19 9L19 8L20 8L20 6L19 6L19 5L18 5L18 6L17 6L17 7L16 7L16 5L17 5L17 3L18 3L18 4L19 4L19 3L18 3L18 2L17 2L17 1ZM13 4L13 5L12 5L12 7L11 7L11 6L10 6L10 7L11 7L11 8L12 8L12 7L13 7L13 9L15 9L15 8L16 8L16 7L15 7L15 5L14 5L14 4ZM13 5L13 7L14 7L14 5ZM18 6L18 7L19 7L19 6ZM0 8L0 9L2 9L2 10L3 10L3 9L4 9L4 8ZM6 9L6 10L7 10L7 9ZM9 9L9 10L10 10L10 9ZM20 9L20 10L19 10L19 11L20 11L20 10L21 10L21 9ZM6 13L6 14L2 14L2 15L1 15L1 16L5 16L5 19L6 19L6 18L7 18L7 17L6 17L6 16L7 16L7 15L6 15L6 14L7 14L7 13ZM13 13L13 14L12 14L12 16L14 16L14 15L15 15L15 14L14 14L14 13ZM13 14L13 15L14 15L14 14ZM21 15L21 16L22 16L22 15ZM23 15L23 17L25 17L25 16L24 16L24 15ZM9 17L9 18L10 18L10 17ZM1 20L1 21L2 21L2 20ZM21 21L21 24L24 24L24 21ZM22 22L22 23L23 23L23 22ZM26 22L26 24L27 24L27 22ZM9 26L9 27L10 27L10 28L11 28L11 27L10 27L10 26ZM23 28L23 29L24 29L24 28ZM25 28L25 29L26 29L26 28ZM0 0L0 7L7 7L7 0ZM1 1L1 6L6 6L6 1ZM2 2L2 5L5 5L5 2ZM22 0L22 7L29 7L29 0ZM23 1L23 6L28 6L28 1ZM24 2L24 5L27 5L27 2ZM0 22L0 29L7 29L7 22ZM1 23L1 28L6 28L6 23ZM2 24L2 27L5 27L5 24Z" fill="#000000"/></g></g></svg>
