<?xml version="1.0" encoding="UTF-8"?>
<svg xmlns="http://www.w3.org/2000/svg" version="1.1" width="200" height="200" viewBox="0 0 200 200"><rect x="0" y="0" width="200" height="200" fill="#ffffff"/><g transform="scale(9.524)"><g transform="translate(0,0)"><path fill-rule="evenodd" d="M10 0L10 3L12 3L12 4L8 4L8 8L6 8L6 9L5 9L5 10L4 10L4 8L3 8L3 9L2 9L2 8L0 8L0 9L1 9L1 11L0 11L0 12L1 12L1 11L2 11L2 12L3 12L3 13L5 13L5 12L6 12L6 13L7 13L7 12L6 12L6 11L8 11L8 10L9 10L9 9L8 9L8 8L9 8L9 6L10 6L10 7L11 7L11 5L13 5L13 3L12 3L12 2L13 2L13 0L12 0L12 2L11 2L11 0ZM8 1L8 3L9 3L9 1ZM12 6L12 7L13 7L13 6ZM10 8L10 10L11 10L11 11L9 11L9 12L8 12L8 15L9 15L9 14L11 14L11 15L13 15L13 14L14 14L14 16L12 16L12 17L13 17L13 19L12 19L12 18L11 18L11 16L10 16L10 18L9 18L9 17L8 17L8 18L9 18L9 19L8 19L8 21L11 21L11 20L13 20L13 21L14 21L14 20L13 20L13 19L15 19L15 20L16 20L16 21L19 21L19 20L18 20L18 19L19 19L19 18L20 18L20 20L21 20L21 16L20 16L20 14L19 14L19 16L18 16L18 12L19 12L19 13L20 13L20 12L21 12L21 11L19 11L19 10L16 10L16 9L17 9L17 8L14 8L14 9L13 9L13 8ZM18 8L18 9L20 9L20 8ZM6 9L6 10L5 10L5 11L4 11L4 10L2 10L2 11L4 11L4 12L5 12L5 11L6 11L6 10L8 10L8 9ZM12 9L12 11L11 11L11 12L12 12L12 13L11 13L11 14L13 14L13 12L12 12L12 11L14 11L14 10L15 10L15 9L14 9L14 10L13 10L13 9ZM16 12L16 13L17 13L17 12ZM15 14L15 15L16 15L16 16L15 16L15 17L17 17L17 19L18 19L18 18L19 18L19 17L20 17L20 16L19 16L19 17L18 17L18 16L17 16L17 15L16 15L16 14ZM15 18L15 19L16 19L16 18ZM0 0L0 7L7 7L7 0ZM1 1L1 6L6 6L6 1ZM2 2L2 5L5 5L5 2ZM14 0L14 7L21 7L21 0ZM15 1L15 6L20 6L20 1ZM16 2L16 5L19 5L19 2ZM0 14L0 21L7 21L7 14ZM1 15L1 20L6 20L6 15ZM2 16L2 19L5 19L5 16Z" fill="#000000"/></g></g></svg>
